<svg xmlns="http://www.w3.org/2000/svg" viewBox="0 0 500 500" version="1.1" id="svg_null" width="500" height="500">
	<defs>
		<style type="text/css">
			/* latin */
			@font-face {
				font-family: 'Caesar Dressing';
				font-style: normal;
				font-weight: 400;
				src: url(./CaesarDressing-Regular.ttf);
				unicode-range: U+0000-00FF, U+0131, U+0152-0153, U+02BB-02BC, U+02C6, U+02DA, U+02DC, U+2000-206F, U+2074, U+20AC, U+2122, U+2191, U+2193, U+2212, U+2215, U+FEFF, U+FFFD;
			}
		</style>
	</defs>
	<g id="root" stroke="none" stroke-width="1" fill="none" fill-rule="evenodd">
		<rect id="background" fill="#ffffff" x="0" y="0" width="500" height="500">
		</rect>
		<g id="shape.primary" transform="translate(125.000000, 80.000000)" fill="#f33535">
			<g fill="#f33535">
				<path d="M16.397 233.62l-15.52 15.518l0 -248.276l31.033 217.243l-15.513 15.515zm217.21 -217.243l15.516 -15.515l0 248.276l-31.029 -217.246l15.514 -15.515z" fill-opacity=".6" fill="#f33535">
				</path>
				<path d="M47.422 202.592l-15.514 15.515l-31.031 -217.243l62.068 186.206l-15.523 15.522zm155.161 -155.177l15.513 -15.525l31.027 217.246l-62.06 -186.199l15.52 -15.522z" fill-opacity=".5" fill="#f33535">
				</path>
				<path d="M78.456 171.554l-15.514 15.518l-62.065 -186.209l93.095 155.176l-15.516 15.515zm93.093 -93.104l15.516 -15.515l62.058 186.201l-93.087 -155.168l15.513 -15.518z" fill-opacity=".4" fill="#f33535">
				</path>
				<path d="M233.617 16.394l-15.506 15.515l-217.233 -30.955l248.245 -0.09l-15.506 15.53zm-217.227 217.22l15.503 -15.516l217.23 30.955l-248.246 0.085l15.513 -15.525z" fill-opacity=".03" fill="#f33535">
				</path>
				<path d="M202.592 47.431l-15.506 15.523l-186.208 -62l217.235 30.953l-15.52 15.524zm-155.185 155.145l15.514 -15.53l186.2 62.007l-217.23 -30.953l15.516 -15.524z" fill-opacity=".05" fill="#f33535">
				</path>
				<path d="M171.573 78.477l-15.504 15.524l-155.191 -93.047l186.21 61.998l-15.515 15.525zm-93.141 93.044l15.506 -15.522l155.184 93.054l-186.203 -62.007l15.513 -15.525z" fill-opacity=".1" fill="#f33535">
				</path>
				<path d="M140.557 109.521l-15.554 15.482l-124.126 -124.051l155.194 93.047l-15.514 15.522zm-31.107 30.965l15.545 -15.484l124.128 124.053l-155.187 -93.054l15.514 -15.515z" fill-opacity=".2" fill="#f33535">
				</path>
				<path d="M125 124.998l15.515 -15.517l15.52 -15.513l92.865 154.79l0.223 0.296l-0.124 -0.131l0.124 0.214l-0.296 -0.386l-123.83 -123.744l-15.508 15.51l-15.518 15.522l-92.866 -154.792l-0.228 -0.294l0.13 0.131l-0.13 -0.22l0.303 0.393l123.82 123.741z" fill-opacity=".3" fill="#f33535">
				</path>
			</g>
			<g fill="#f33535">
				<path d="M16.39 125.002l-15.513 0l124.126 -124.14l-93.1 124.14l-15.513 0zm217.218 -0.007l15.515 0.008l-124.12 124.135l93.091 -124.143l15.514 0z" fill-opacity=".6" fill="#f33535">
				</path>
				<path d="M47.422 125.002l-15.521 0l93.102 -124.14l-62.058 124.14l-15.523 0zm155.161 0l15.513 -0.007l-93.094 124.143l62.06 -124.136l15.521 0z" fill-opacity=".5" fill="#f33535">
				</path>
				<path d="M78.456 125.002l-15.514 0l62.061 -124.14l-31.031 124.14l-15.516 0zm93.093 0l15.516 0l-62.063 124.136l31.034 -124.143l15.513 0.007z" fill-opacity=".4" fill="#f33535">
				</path>
				<path d="M233.608 125.012l-15.514 0l-93.133 -124.102l124.162 124.092l-15.515 0.01zm-217.218 -0.017l15.513 0l93.14 124.1l-124.166 -124.092l15.513 -0.008z" fill-opacity=".03" fill="#f33535">
				</path>
				<path d="M202.574 125.012l-15.511 0.017l-62.102 -124.119l93.136 124.102l-15.523 0zm-155.152 -0.026l15.523 -0.007l62.097 124.116l-93.141 -124.1l15.52 -0.01z" fill-opacity=".05" fill="#f33535">
				</path>
				<path d="M171.549 125.029l-15.513 0.007l-31.073 -124.126l62.102 124.119l-15.516 0zm-93.093 -0.05l15.516 -0.017l31.07 124.133l-62.1 -124.116l15.514 0z" fill-opacity=".1" fill="#f33535">
				</path>
				<path d="M140.515 125.036l-15.514 -0.034l-0.038 -124.092l31.075 124.126l-15.523 0zm-31.032 -0.074l15.513 0.034l0.046 124.1l-31.072 -124.134l15.513 0z" fill-opacity=".2" fill="#f33535">
				</path>
				<path d="M125.002 124.996l15.512 0l15.523 0l-30.961 123.845l-0.034 0.252l0 -0.128l-0.039 0.172l0.039 -0.347l-0.046 -123.786l-15.513 0l-15.513 0l30.959 -123.838l0.034 -0.254l0 0.12l0.039 -0.169l-0.04 0.345l0.04 123.788z" fill-opacity=".3" fill="#f33535">
				</path>
			</g>
		</g>
		<g id="Group" transform="translate(40.000000, 354.000000)" fill="none">
			<rect id="Rectangle-10" x="0" y="0" width="420" height="46" fill="none">
			</rect>
			<text id="headerText" font-family="Caesar Dressing" font-size="44" font-weight="400" line-spacing="44" letter-spacing="4.4" fill="#4a4a4a" data-text-alignment="C" font-style="normal">
				<tspan x="93.953125" y="42.5" fill="#4a4a4a">
					structmap
				</tspan>
			</text>
		</g>
		<g id="Group-3" transform="translate(40.000000, 420.000000)" fill="none">
			<rect id="Rectangle" x="0" y="0" width="420" height="30" fill="none">
			</rect>
			<text id="captionText" font-family="Caesar Dressing" font-size="30" font-weight="400" line-spacing="30" letter-spacing="3" fill="#4a4a4a" data-text-alignment="C" font-style="normal">
				<tspan x="210" y="165" fill="#4a4a4a">
				</tspan>
			</text>
		</g>
	</g>
</svg>
